<svg width="103" height="78" viewBox="0 0 103 78" fill="none" xmlns="http://www.w3.org/2000/svg">
<path fill-rule="evenodd" clip-rule="evenodd" d="M0 48.0873L0 78H103V39.2617C100.372 44.4268 92.1675 48.0873 81.3383 48.0873H0Z" fill="white"/>
<path fill-rule="evenodd" clip-rule="evenodd" d="M0 46.0666V0H103V30.5679C103 42.1921 93.243 46.0671 81.3383 46.0671L0 46.0666Z" fill="white"/>
<path d="M68.5655 59.2608C68.5655 60.0862 68.0186 60.8208 67.0649 60.8208C66.827 60.8298 66.5913 60.7749 66.3853 60.6623C66.1792 60.5498 66.0113 60.3843 65.9012 60.1852V61.5224C65.9044 61.5544 65.9002 61.5867 65.889 61.6171C65.8777 61.6474 65.8596 61.6751 65.8359 61.6983C65.8122 61.7214 65.7835 61.7394 65.7517 61.7511C65.7199 61.7628 65.6859 61.7678 65.6518 61.7659C65.6174 61.7693 65.5826 61.7653 65.5501 61.7542C65.5175 61.7431 65.4881 61.7251 65.4641 61.7016C65.44 61.6781 65.422 61.6498 65.4113 61.6187C65.4006 61.5877 65.3976 61.5547 65.4025 61.5224V57.969C65.3976 57.9403 65.3998 57.911 65.4089 57.8832C65.418 57.8554 65.4337 57.83 65.4548 57.8089C65.4759 57.7878 65.5019 57.7715 65.5308 57.7613C65.5596 57.7512 65.5906 57.7474 65.6212 57.7503C65.6495 57.7497 65.6776 57.7545 65.7039 57.7645C65.7302 57.7745 65.7541 57.7893 65.7741 57.8082C65.7941 57.8271 65.8099 57.8496 65.8205 57.8744C65.831 57.8992 65.8362 57.9258 65.8356 57.9525L65.8662 58.3652C65.9757 58.159 66.1456 57.9869 66.3558 57.8691C66.5659 57.7513 66.8075 57.6929 67.0518 57.7007C67.2633 57.6986 67.473 57.7386 67.667 57.818C67.8611 57.8974 68.0352 58.0146 68.178 58.1618C68.3209 58.309 68.4292 58.4829 68.496 58.6723C68.5627 58.8617 68.5864 59.0622 68.5655 59.2608V59.2608ZM65.8837 59.2608C65.8701 59.404 65.8883 59.5484 65.937 59.6846C65.9858 59.8209 66.0642 59.9461 66.1671 60.0522C66.2699 60.1583 66.3951 60.2431 66.5346 60.3011C66.6742 60.3591 66.825 60.389 66.9774 60.389C67.1299 60.389 67.2807 60.3591 67.4202 60.3011C67.5597 60.2431 67.6849 60.1583 67.7878 60.0522C67.8907 59.9461 67.969 59.8209 68.0178 59.6846C68.0666 59.5484 68.0847 59.404 68.0711 59.2608C68.0711 58.9871 67.9559 58.7247 67.7508 58.5312C67.5457 58.3377 67.2675 58.229 66.9774 58.229C66.6873 58.229 66.4091 58.3377 66.204 58.5312C65.9989 58.7247 65.8837 58.9871 65.8837 59.2608ZM72.3936 59.2154C72.3951 59.2454 72.3896 59.2753 72.3776 59.3031C72.3656 59.3309 72.3472 59.3559 72.3239 59.3763C72.3006 59.3968 72.2728 59.4122 72.2425 59.4214C72.2122 59.4307 72.1802 59.4336 72.1486 59.43H69.8692C69.8707 59.5748 69.9044 59.7176 69.9682 59.8493C70.032 59.981 70.1244 60.0986 70.2396 60.1943C70.3547 60.2901 70.4899 60.3619 70.6364 60.4051C70.7829 60.4484 70.9374 60.462 71.0898 60.4452C71.3726 60.4472 71.6526 60.3938 71.9123 60.2884C72.0698 60.243 72.1748 60.2884 72.1923 60.4163C72.2001 60.4625 72.1903 60.5098 72.1647 60.5498C72.1391 60.5899 72.0993 60.6201 72.0523 60.6351C71.7379 60.7686 71.3951 60.8322 71.0505 60.8208C70.6142 60.8334 70.1905 60.682 69.8726 60.3998C69.5546 60.1177 69.3685 59.728 69.3552 59.3165C69.3418 58.9049 69.5024 58.5052 69.8014 58.2053C70.1005 57.9054 70.5136 57.7298 70.9498 57.7172C72.1092 57.7172 72.3936 58.5798 72.3936 59.2154ZM69.8692 59.0998H71.9298C71.9453 58.9717 71.9318 58.8419 71.8902 58.719C71.8485 58.5962 71.7798 58.483 71.6884 58.3871C71.5971 58.2911 71.4851 58.2146 71.3601 58.1624C71.235 58.1103 71.0997 58.0837 70.963 58.0846C70.82 58.0818 70.6779 58.1061 70.5451 58.1559C70.4122 58.2057 70.2912 58.2801 70.1893 58.3748C70.0874 58.4694 70.0066 58.5822 69.9516 58.7068C69.8966 58.8313 69.8686 58.9649 69.8692 59.0998V59.0998ZM74.8654 57.9649C74.8654 58.1052 74.756 58.1836 74.6029 58.2084C74.3745 58.2303 74.1644 58.3361 74.0179 58.5028C73.8714 58.6696 73.8002 58.884 73.8198 59.0998V60.5443C73.8198 60.6067 73.7935 60.6665 73.7468 60.7106C73.7 60.7547 73.6366 60.7795 73.5704 60.7795C73.5043 60.7795 73.4409 60.7547 73.3941 60.7106C73.3473 60.6665 73.321 60.6067 73.321 60.5443V57.969C73.3172 57.9408 73.3199 57.9122 73.329 57.8851C73.3382 57.858 73.3535 57.8332 73.374 57.8123C73.3944 57.7914 73.4195 57.7751 73.4474 57.7643C73.4753 57.7536 73.5053 57.7488 73.5354 57.7503C73.5622 57.7503 73.5888 57.7553 73.6135 57.7651C73.6382 57.7749 73.6606 57.7892 73.6793 57.8073C73.698 57.8254 73.7128 57.8468 73.7226 57.8703C73.7325 57.8938 73.7373 57.919 73.7367 57.9442L73.7848 58.3569C73.85 58.1953 73.9598 58.0531 74.1029 57.9449C74.246 57.8368 74.4171 57.7668 74.5985 57.742C74.7735 57.7461 74.8654 57.8204 74.8654 57.9649V57.9649ZM77.5341 57.8617C77.6566 57.9071 77.7135 57.9814 77.696 58.0804C77.6885 58.1227 77.6647 58.1608 77.6291 58.1875C77.5936 58.2142 77.5488 58.2275 77.5035 58.2249C77.46 58.2209 77.4173 58.2112 77.3766 58.196C77.1565 58.12 76.9241 58.0809 76.6897 58.0804C76.2522 58.0804 75.9898 58.2661 75.9898 58.5344C75.9898 58.8027 76.3616 58.9471 76.7772 59.0709C77.2847 59.2112 77.8535 59.3763 77.8535 59.9706C77.8535 60.5649 77.3328 60.8167 76.6416 60.8167C76.2896 60.8123 75.9413 60.748 75.6135 60.6268C75.5735 60.6091 75.5402 60.5802 75.5183 60.544C75.4964 60.5078 75.4868 60.4661 75.491 60.4246C75.4944 60.3837 75.5146 60.3457 75.5473 60.3187C75.58 60.2917 75.6226 60.2779 75.666 60.2801C75.7066 60.2747 75.7479 60.2747 75.7885 60.2801C76.0467 60.3756 76.3207 60.4273 76.5979 60.4328C77.1185 60.4328 77.346 60.2224 77.346 59.9582C77.346 59.6239 76.9347 59.5455 76.4972 59.4052C76.0598 59.2649 75.491 59.0957 75.491 58.522C75.491 57.9484 76.0423 57.6966 76.6504 57.6966C76.9529 57.7027 77.252 57.7585 77.5341 57.8617V57.8617ZM81.9353 59.269C81.9448 59.5867 81.8537 59.8998 81.6736 60.1684C81.4935 60.4369 81.2325 60.6487 80.9241 60.7766C80.6157 60.9044 80.2739 60.9426 79.9424 60.8862C79.6108 60.8298 79.3047 60.6814 79.0631 60.4599C78.8214 60.2385 78.6553 59.9541 78.586 59.6431C78.5167 59.3321 78.5473 59.0087 78.6739 58.7142C78.8005 58.4197 79.0174 58.1675 79.2967 57.9899C79.5761 57.8123 79.9053 57.7174 80.2422 57.7172C80.4633 57.707 80.6843 57.7398 80.8914 57.8136C81.0986 57.8873 81.2874 58.0005 81.4462 58.146C81.605 58.2916 81.7304 58.4664 81.8145 58.6596C81.8986 58.8528 81.9397 59.0602 81.9353 59.269V59.269ZM81.4234 59.269C81.4114 59.0514 81.3321 58.842 81.1952 58.6665C81.0584 58.491 80.87 58.3572 80.6534 58.2816C80.4368 58.2061 80.2014 58.1921 79.9765 58.2414C79.7515 58.2907 79.5468 58.4011 79.3877 58.559C79.2285 58.7169 79.122 58.9154 79.0811 59.1298C79.0403 59.3442 79.067 59.5652 79.1579 59.7655C79.2489 59.9658 79.4 60.1365 79.5927 60.2566C79.7854 60.3766 80.0112 60.4408 80.2422 60.4411C80.4033 60.4437 80.5633 60.4148 80.7119 60.356C80.8606 60.2973 80.9947 60.2101 81.1058 60.0999C81.2168 59.9897 81.3024 59.8589 81.3571 59.7159C81.4117 59.5729 81.4343 59.4207 81.4234 59.269V59.269ZM85.6627 59.0131V60.5443C85.6674 60.5781 85.6645 60.6124 85.654 60.645C85.6435 60.6776 85.6258 60.7078 85.602 60.7334C85.5781 60.759 85.5488 60.7796 85.5159 60.7937C85.483 60.8077 85.4473 60.815 85.4111 60.815C85.375 60.815 85.3393 60.8077 85.3064 60.7937C85.2735 60.7796 85.2441 60.759 85.2203 60.7334C85.1965 60.7078 85.1788 60.6776 85.1683 60.645C85.1578 60.6124 85.1548 60.5781 85.1596 60.5443V59.0049C85.1596 58.4312 84.8796 58.0969 84.3415 58.0969C84.2075 58.1009 84.0758 58.1307 83.9544 58.1844C83.833 58.2381 83.7246 58.3147 83.6357 58.4094C83.5468 58.504 83.4793 58.6149 83.4374 58.735C83.3956 58.8551 83.3801 58.9821 83.3921 59.1081V60.5443C83.3921 60.5752 83.3857 60.6058 83.3731 60.6343C83.3606 60.6628 83.3422 60.6888 83.3191 60.7106C83.2959 60.7325 83.2684 60.7498 83.2382 60.7616C83.2079 60.7734 83.1755 60.7795 83.1427 60.7795C83.11 60.7795 83.0776 60.7734 83.0473 60.7616C83.0171 60.7498 82.9896 60.7325 82.9664 60.7106C82.9433 60.6888 82.9249 60.6628 82.9124 60.6343C82.8998 60.6058 82.8934 60.5752 82.8934 60.5443V57.969C82.8934 57.8287 82.9677 57.7503 83.099 57.7503C83.2302 57.7503 83.2827 57.8039 83.3002 57.9484L83.3527 58.3611C83.4438 58.1562 83.6 57.9831 83.7999 57.8655C83.9997 57.748 84.2333 57.6918 84.4683 57.7049C85.1858 57.7172 85.6715 58.1382 85.6715 59.0131H85.6627ZM89.2545 58.716V60.2182C89.2545 60.3998 89.377 60.3751 89.4995 60.3792C89.5227 60.379 89.5457 60.3835 89.567 60.3924C89.5882 60.4014 89.6071 60.4145 89.6225 60.4309C89.6378 60.4474 89.6492 60.4668 89.656 60.4877C89.6627 60.5087 89.6645 60.5308 89.6614 60.5525C89.6631 60.5873 89.6546 60.6219 89.6369 60.6525C89.6191 60.6831 89.5928 60.7085 89.5608 60.7259C89.4584 60.7762 89.3434 60.799 89.2283 60.7919C89.1741 60.7976 89.1193 60.7927 89.0672 60.7774C89.0152 60.7621 88.9671 60.7368 88.9259 60.703C88.8848 60.6692 88.8516 60.6278 88.8283 60.5813C88.805 60.5348 88.7922 60.4842 88.7908 60.4328V60.2471C88.6773 60.4363 88.5084 60.5907 88.3044 60.6917C88.1003 60.7927 87.8697 60.8361 87.6402 60.8167C87.0321 60.8167 86.5202 60.5319 86.5202 59.9046C86.5202 59.1989 87.1633 58.9471 87.9333 58.9471C88.2114 58.9527 88.4889 58.9734 88.7645 59.009V58.7531C88.7645 58.229 88.4102 58.0887 87.9202 58.0887C87.6345 58.0915 87.3505 58.1304 87.0758 58.2042C87.0476 58.2147 87.0172 58.2187 86.9871 58.216C86.957 58.2133 86.928 58.2039 86.9024 58.1886C86.8768 58.1734 86.8554 58.1526 86.8399 58.1281C86.8245 58.1035 86.8153 58.0759 86.8133 58.0474C86.8126 57.999 86.8303 57.952 86.8632 57.9149C86.8962 57.8778 86.9421 57.8531 86.9927 57.8452C87.3207 57.7618 87.6593 57.7215 87.9989 57.7255C88.7689 57.7172 89.2545 57.9896 89.2545 58.716V58.716ZM87.0277 59.8716C87.0277 60.2843 87.3689 60.4617 87.7495 60.4617C88.0001 60.4788 88.2475 60.4015 88.4378 60.2468C88.628 60.0921 88.7455 59.8726 88.7645 59.6363V59.3103C88.5046 59.2664 88.2411 59.2443 87.977 59.2443C87.487 59.2608 87.0277 59.4011 87.0277 59.8716ZM90.9651 56.7722V60.2306C90.9651 60.3916 91.0395 60.4411 91.1751 60.4328H91.2845C91.3061 60.4327 91.3276 60.4369 91.3474 60.4452C91.3672 60.4534 91.385 60.4656 91.3994 60.4808C91.4139 60.496 91.4248 60.514 91.4314 60.5334C91.4379 60.5529 91.4401 60.5735 91.4376 60.5938C91.4351 60.6319 91.421 60.6686 91.397 60.6994C91.3729 60.7301 91.3399 60.7537 91.302 60.7671C91.206 60.8085 91.1012 60.8282 90.9957 60.8249C90.9214 60.8299 90.8468 60.8192 90.7774 60.7935C90.7081 60.7677 90.6457 60.7277 90.5949 60.6762C90.5441 60.6247 90.5062 60.5632 90.484 60.4961C90.4617 60.4289 90.4557 60.358 90.4664 60.2884V56.7722C90.4664 56.7413 90.4728 56.7107 90.4853 56.6821C90.4979 56.6536 90.5162 56.6277 90.5394 56.6058C90.5626 56.584 90.59 56.5666 90.6203 56.5548C90.6506 56.543 90.683 56.5369 90.7157 56.5369C90.7485 56.5369 90.7809 56.543 90.8112 56.5548C90.8414 56.5666 90.8689 56.584 90.8921 56.6058C90.9152 56.6277 90.9336 56.6536 90.9461 56.6821C90.9587 56.7107 90.9651 56.7413 90.9651 56.7722V56.7722ZM69.633 63.8459L68.7886 66.2974C68.7673 66.3706 68.7211 66.4352 68.6571 66.4812C68.5931 66.5273 68.5148 66.5522 68.4343 66.5522C68.3538 66.5522 68.2755 66.5273 68.2115 66.4812C68.1474 66.4352 68.1012 66.3706 68.0799 66.2974L67.4018 64.1637L66.7281 66.2974C66.7069 66.3696 66.6612 66.4333 66.598 66.4787C66.5348 66.5241 66.4575 66.5486 66.3781 66.5486C66.2986 66.5486 66.2214 66.5241 66.1581 66.4787C66.0949 66.4333 66.0492 66.3696 66.0281 66.2974L65.1837 63.8459C65.1181 63.6478 65.2143 63.5157 65.3981 63.5157C65.5118 63.5157 65.5862 63.5735 65.6343 63.7138L66.3868 65.9961L67.078 63.7551C67.0924 63.6867 67.1318 63.6252 67.1894 63.5814C67.247 63.5377 67.3191 63.5144 67.393 63.5157C67.4657 63.514 67.5364 63.5374 67.592 63.5815C67.6477 63.6256 67.6842 63.6873 67.6949 63.7551L68.3949 65.9961H68.4168L69.178 63.7056C69.2217 63.5611 69.3005 63.5034 69.4099 63.5034C69.6024 63.5157 69.6986 63.6478 69.633 63.8459ZM71.3042 63.5322C71.3361 63.5304 71.3681 63.535 71.398 63.5458C71.4278 63.5566 71.4549 63.5733 71.4773 63.5949C71.4997 63.6164 71.5169 63.6422 71.5278 63.6706C71.5387 63.6989 71.543 63.7292 71.5405 63.7592V66.3056C71.5405 66.3365 71.534 66.3671 71.5215 66.3956C71.5089 66.4242 71.4906 66.4501 71.4674 66.472C71.4443 66.4938 71.4168 66.5111 71.3865 66.523C71.3563 66.5348 71.3238 66.5409 71.2911 66.5409C71.2583 66.5409 71.2259 66.5348 71.1957 66.523C71.1654 66.5111 71.1379 66.4938 71.1148 66.472C71.0916 66.4501 71.0732 66.4242 71.0607 66.3956C71.0482 66.3671 71.0417 66.3365 71.0417 66.3056V63.9656L70.8492 63.9161C70.8027 63.904 70.7618 63.8775 70.7332 63.8408C70.7046 63.8041 70.69 63.7594 70.6917 63.7138C70.6908 63.688 70.6959 63.6622 70.7067 63.6384C70.7175 63.6145 70.7336 63.5932 70.7541 63.5759C70.7745 63.5586 70.7987 63.5457 70.8249 63.5382C70.8512 63.5306 70.8789 63.5286 70.9061 63.5322H71.3042ZM71.5667 62.7275V62.843C71.567 62.8791 71.5592 62.9147 71.5436 62.9477C71.5281 62.9806 71.5052 63.01 71.4766 63.0338C71.448 63.0577 71.4143 63.0755 71.3777 63.086C71.3412 63.0965 71.3027 63.0995 71.2648 63.0948C71.2275 63.0989 71.1897 63.0955 71.1539 63.0846C71.1181 63.0738 71.0852 63.0558 71.0574 63.032C71.0296 63.0081 71.0076 62.9789 70.9928 62.9463C70.978 62.9137 70.9708 62.8785 70.9717 62.843V62.7275C70.9703 62.6915 70.977 62.6557 70.9915 62.6225C71.006 62.5892 71.0278 62.5592 71.0556 62.5346C71.0834 62.5099 71.1164 62.4912 71.1525 62.4796C71.1886 62.4681 71.2269 62.4639 71.2648 62.4675C71.3033 62.4633 71.3423 62.467 71.3791 62.4783C71.416 62.4895 71.4498 62.5081 71.4784 62.5327C71.507 62.5574 71.5297 62.5875 71.5449 62.6211C71.5602 62.6547 71.5676 62.691 71.5667 62.7275V62.7275ZM74.5635 63.7303C74.5635 63.8665 74.4498 63.9491 74.2967 63.9697C74.0682 63.9927 73.8585 64.0994 73.7128 64.267C73.5671 64.4346 73.4971 64.6495 73.5179 64.8653V66.3056C73.5205 66.3379 73.5157 66.3702 73.5039 66.4006C73.4921 66.4309 73.4736 66.4586 73.4496 66.4816C73.4255 66.5047 73.3966 66.5226 73.3646 66.5343C73.3326 66.5459 73.2984 66.551 73.2642 66.5491C73.2301 66.551 73.1961 66.546 73.1643 66.5343C73.1325 66.5227 73.1038 66.5046 73.0801 66.4815C73.0564 66.4584 73.0383 66.4307 73.027 66.4003C73.0158 66.3699 73.0116 66.3376 73.0148 66.3056V63.7345C73.0109 63.7063 73.0137 63.6777 73.0228 63.6506C73.0319 63.6235 73.0473 63.5986 73.0677 63.5778C73.0882 63.5569 73.1132 63.5405 73.1411 63.5298C73.169 63.5191 73.1991 63.5143 73.2292 63.5157C73.281 63.5179 73.33 63.5388 73.3659 63.5742C73.4017 63.6096 73.4217 63.6566 73.4217 63.7056L73.4698 64.1183C73.5373 63.9565 73.6497 63.8149 73.7952 63.7082C73.9406 63.6014 74.1138 63.5335 74.2967 63.5116C74.4717 63.5116 74.5635 63.5859 74.5635 63.7303ZM78.3741 64.9685C78.3756 64.9985 78.3701 65.0284 78.3581 65.0562C78.3461 65.084 78.3278 65.109 78.3044 65.1294C78.2811 65.1499 78.2533 65.1653 78.223 65.1745C78.1927 65.1838 78.1607 65.1867 78.1291 65.1831H75.8498C75.8518 65.3277 75.886 65.4702 75.95 65.6016C76.0141 65.733 76.1065 65.8503 76.2215 65.9459C76.3365 66.0415 76.4714 66.1134 76.6176 66.1569C76.7638 66.2003 76.918 66.2145 77.0704 66.1983C77.3531 66.2003 77.6331 66.1469 77.8928 66.0415C78.0503 65.9961 78.1553 66.0415 78.1728 66.1694C78.1797 66.2155 78.1696 66.2624 78.1441 66.3023C78.1186 66.3421 78.0793 66.3725 78.0328 66.3882C77.7181 66.5206 77.3753 66.5827 77.031 66.5698C76.8098 66.5848 76.5877 66.5576 76.3779 66.4896C76.1682 66.4216 75.9752 66.3143 75.8105 66.1742C75.6459 66.034 75.513 65.8639 75.4198 65.6741C75.3266 65.4843 75.275 65.2786 75.2682 65.0695C75.2615 64.8604 75.2996 64.6522 75.3803 64.4573C75.461 64.2625 75.5826 64.085 75.7379 63.9356C75.8931 63.7862 76.0788 63.668 76.2837 63.5881C76.4886 63.5081 76.7086 63.4681 76.9304 63.4703C78.0766 63.4827 78.3741 64.3453 78.3741 64.9808V64.9685ZM75.8498 64.8529H77.9103C77.9258 64.7248 77.9123 64.595 77.8707 64.4721C77.8291 64.3493 77.7603 64.2361 77.6689 64.1402C77.5776 64.0442 77.4657 63.9677 77.3406 63.9155C77.2156 63.8634 77.0802 63.8368 76.9435 63.8376C76.7994 63.8349 76.6562 63.8595 76.5225 63.9101C76.3887 63.9607 76.2672 64.0362 76.1651 64.1322C76.063 64.2281 75.9824 64.3425 75.9282 64.4684C75.8741 64.5944 75.8474 64.7294 75.8498 64.8653V64.8529ZM80.1197 62.5252V65.9837C80.1197 66.1447 80.1897 66.1901 80.3253 66.1859H80.4347C80.4563 66.1858 80.4778 66.19 80.4976 66.1983C80.5174 66.2065 80.5352 66.2187 80.5496 66.2339C80.5641 66.2491 80.575 66.2671 80.5816 66.2865C80.5882 66.306 80.5903 66.3266 80.5878 66.3469C80.5862 66.3858 80.5724 66.4233 80.5483 66.4549C80.5242 66.4864 80.4908 66.5106 80.4522 66.5244C80.3553 66.5627 80.2509 66.581 80.1459 66.578C79.7566 66.578 79.6166 66.3386 79.6166 66.0415V62.5335C79.6127 62.5017 79.6162 62.4695 79.6269 62.4391C79.6377 62.4087 79.6553 62.3809 79.6787 62.3577C79.7021 62.3345 79.7306 62.3164 79.7622 62.3047C79.7938 62.293 79.8277 62.288 79.8616 62.29C79.8967 62.2867 79.9322 62.2909 79.9654 62.3022C79.9986 62.3135 80.0287 62.3318 80.0535 62.3555C80.0782 62.3793 80.097 62.408 80.1085 62.4395C80.12 62.471 80.1238 62.5045 80.1197 62.5376V62.5252ZM84.5646 64.9685C84.5661 64.9985 84.5606 65.0284 84.5486 65.0562C84.5366 65.084 84.5183 65.109 84.4949 65.1294C84.4716 65.1499 84.4438 65.1653 84.4136 65.1745C84.3833 65.1838 84.3512 65.1867 84.3196 65.1831H82.0403C82.0423 65.328 82.0766 65.471 82.1409 65.6027C82.2052 65.7344 82.298 65.8519 82.4135 65.9476C82.529 66.0433 82.6644 66.115 82.8112 66.1582C82.9579 66.2014 83.1126 66.2151 83.2652 66.1983C83.5465 66.1998 83.825 66.1464 84.0834 66.0415C84.2409 65.9961 84.3459 66.0415 84.3634 66.1694C84.3703 66.2155 84.3601 66.2624 84.3346 66.3023C84.3091 66.3421 84.2698 66.3725 84.2234 66.3882C83.9087 66.5206 83.5658 66.5827 83.2215 66.5698C83.0003 66.5848 82.7782 66.5576 82.5684 66.4896C82.3587 66.4216 82.1657 66.3143 82.001 66.1742C81.8364 66.034 81.7035 65.8639 81.6103 65.6741C81.5171 65.4843 81.4655 65.2786 81.4587 65.0695C81.452 64.8604 81.4901 64.6522 81.5708 64.4573C81.6515 64.2625 81.7731 64.085 81.9284 63.9356C82.0836 63.7862 82.2693 63.668 82.4742 63.5881C82.6792 63.5081 82.8991 63.4681 83.1209 63.4703C84.2671 63.4827 84.5646 64.3453 84.5646 64.9808V64.9685ZM82.0403 64.8529H84.1009C84.1163 64.7248 84.1028 64.595 84.0612 64.4721C84.0196 64.3493 83.9508 64.2361 83.8594 64.1402C83.7681 64.0442 83.6562 63.9677 83.5311 63.9155C83.4061 63.8634 83.2707 63.8368 83.134 63.8376C82.9899 63.8349 82.8467 63.8595 82.713 63.9101C82.5792 63.9607 82.4577 64.0362 82.3556 64.1322C82.2535 64.2281 82.1729 64.3425 82.1188 64.4684C82.0646 64.5944 82.0379 64.7294 82.0403 64.8653V64.8529ZM87.6402 63.6148C87.7627 63.6602 87.8152 63.7345 87.7977 63.8335C87.7902 63.875 87.7671 63.9126 87.7325 63.9392C87.6978 63.9658 87.6541 63.9796 87.6095 63.978C87.5659 63.9748 87.523 63.9651 87.4827 63.9491C87.2625 63.8735 87.0301 63.8344 86.7958 63.8335C86.3364 63.8335 86.0914 64.0192 86.0914 64.2875C86.0914 64.5558 86.4677 64.7002 86.8833 64.824C87.3908 64.9643 87.9595 65.1294 87.9595 65.7237C87.9595 66.318 87.4389 66.5491 86.7477 66.5491C86.3952 66.5494 86.046 66.4849 85.7196 66.3593C85.6778 66.3438 85.6428 66.3153 85.6205 66.2785C85.5983 66.2417 85.59 66.1989 85.5971 66.157C85.6004 66.1169 85.62 66.0795 85.6518 66.0526C85.6835 66.0258 85.725 66.0114 85.7677 66.0126C85.8099 66.0131 85.8515 66.0216 85.8902 66.0374C86.1499 66.1328 86.4253 66.1845 86.7039 66.1901C87.2245 66.1901 87.452 65.9796 87.452 65.7155C87.452 65.3812 87.0408 65.3027 86.5989 65.1624C86.1571 65.0221 85.5971 64.8488 85.5971 64.2792C85.5971 63.7097 86.1483 63.4538 86.7521 63.4538C87.0565 63.463 87.3569 63.5216 87.6402 63.6272V63.6148ZM91.0132 63.6148C91.1357 63.6602 91.1926 63.7345 91.1751 63.8335C91.1676 63.8758 91.1438 63.9139 91.1083 63.9406C91.0727 63.9673 91.0279 63.9806 90.9826 63.978C90.939 63.9744 90.8963 63.9646 90.8557 63.9491C90.6357 63.8731 90.4032 63.834 90.1689 63.8335C89.7314 63.8335 89.4689 64.0192 89.4689 64.2875C89.4689 64.5558 89.8408 64.7002 90.2564 64.824C90.7639 64.9643 91.3326 65.1294 91.3326 65.7237C91.3326 66.318 90.812 66.5491 90.1208 66.5491C89.7683 66.5488 89.4192 66.4844 89.0926 66.3593C89.0511 66.3437 89.0167 66.315 88.9951 66.2782C88.9736 66.2413 88.9663 66.1984 88.9745 66.157C88.9756 66.137 88.9809 66.1173 88.9901 66.0992C88.9993 66.0811 89.0122 66.0648 89.028 66.0514C89.0439 66.038 89.0624 66.0277 89.0825 66.021C89.1026 66.0143 89.1239 66.0115 89.1451 66.0126C89.1873 66.0131 89.2289 66.0216 89.2676 66.0374C89.5258 66.1328 89.7998 66.1845 90.077 66.1901C90.5976 66.1901 90.8251 65.9796 90.8251 65.7155C90.8251 65.3812 90.4139 65.3027 89.9764 65.1624C89.5389 65.0221 88.9745 64.8488 88.9745 64.2792C88.9745 63.7097 89.5214 63.4538 90.1295 63.4538C90.4325 63.463 90.7315 63.5217 91.0132 63.6272V63.6148ZM65.9187 68.299V71.7616C65.9187 71.9225 65.9931 71.9679 66.1287 71.9638H66.2381C66.2597 71.9637 66.2812 71.9679 66.301 71.9761C66.3208 71.9844 66.3385 71.9965 66.353 72.0118C66.3675 72.027 66.3784 72.0449 66.385 72.0644C66.3915 72.0839 66.3937 72.1044 66.3912 72.1248C66.3899 72.1632 66.3762 72.2004 66.3519 72.2313C66.3277 72.2623 66.2941 72.2856 66.2556 72.2981C66.1597 72.3397 66.0548 72.3595 65.9493 72.3559C65.5599 72.3559 65.4199 72.1165 65.4199 71.8194V68.299C65.4199 68.2366 65.4462 68.1768 65.493 68.1326C65.5398 68.0885 65.6032 68.0637 65.6693 68.0637C65.7355 68.0637 65.7989 68.0885 65.8456 68.1326C65.8924 68.1768 65.9187 68.2366 65.9187 68.299V68.299ZM67.9049 69.2977C67.9368 69.2959 67.9688 69.3005 67.9986 69.3113C68.0285 69.3221 68.0555 69.3388 68.078 69.3603C68.1004 69.3819 68.1176 69.4077 68.1285 69.436C68.1394 69.4644 68.1437 69.4946 68.1411 69.5247V72.0711C68.1411 72.1335 68.1149 72.1933 68.0681 72.2374C68.0213 72.2816 67.9579 72.3063 67.8918 72.3063C67.8256 72.3063 67.7622 72.2816 67.7154 72.2374C67.6687 72.1933 67.6424 72.1335 67.6424 72.0711V69.7311L67.4499 69.6774C67.4049 69.6662 67.3652 69.6409 67.3374 69.6057C67.3096 69.5705 67.2953 69.5274 67.2968 69.4834C67.2968 69.3761 67.3755 69.306 67.5112 69.306L67.9049 69.2977ZM68.1674 68.4723V68.5879C68.1676 68.6241 68.1597 68.6599 68.1442 68.693C68.1287 68.726 68.106 68.7557 68.0774 68.7798C68.0489 68.804 68.0153 68.8222 67.9788 68.8332C67.9422 68.8443 67.9036 68.8478 67.8655 68.8438C67.828 68.8473 67.79 68.8432 67.7543 68.8319C67.7185 68.8206 67.6857 68.8022 67.658 68.778C67.6303 68.7538 67.6083 68.7244 67.5936 68.6916C67.5788 68.6588 67.5716 68.6235 67.5724 68.5879V68.4723C67.5716 68.4367 67.5788 68.4014 67.5936 68.3686C67.6083 68.3358 67.6303 68.3064 67.658 68.2822C67.6857 68.258 67.7185 68.2396 67.7543 68.2283C67.79 68.217 67.828 68.2129 67.8655 68.2164C67.9055 68.2114 67.9461 68.2149 67.9845 68.2266C68.0229 68.2382 68.058 68.2578 68.0873 68.2839C68.1167 68.31 68.1395 68.3419 68.1541 68.3774C68.1687 68.4128 68.1747 68.4509 68.1718 68.4888L68.1674 68.4723ZM71.1817 69.2977H72.0305C72.1486 69.2977 72.2404 69.3514 72.2404 69.4587C72.2429 69.504 72.2263 69.5484 72.1944 69.5823C72.1625 69.6163 72.1178 69.6371 72.0698 69.6403L71.7242 69.6774C71.8206 69.7482 71.8972 69.8401 71.9475 69.945C71.9978 70.05 72.0203 70.165 72.013 70.28C72.013 70.833 71.5755 71.2251 70.7967 71.2251C70.5843 71.2328 70.373 71.1932 70.1799 71.1095C70.1214 71.1364 70.0713 71.1772 70.0345 71.2278C69.9976 71.2784 69.9754 71.3372 69.9699 71.3984C69.9699 71.7327 70.6392 71.7162 71.0898 71.7162C71.8248 71.7162 72.1705 71.9679 72.1705 72.4302C72.1705 73.1565 71.3786 73.2886 70.858 73.2886C70.2455 73.2886 69.4405 73.1854 69.4405 72.4632C69.4485 72.3352 69.4936 72.2118 69.5707 72.1063C69.6478 72.0008 69.7541 71.9173 69.878 71.8647C69.7814 71.831 69.6985 71.7693 69.6412 71.6886C69.5838 71.6078 69.555 71.512 69.5586 71.4149C69.5682 71.3139 69.6039 71.2167 69.6627 71.1318C69.7214 71.0469 69.8014 70.9769 69.8955 70.9279C69.7923 70.8403 69.7107 70.7325 69.6563 70.612C69.6019 70.4915 69.576 70.3613 69.5805 70.2304C69.5805 69.5866 70.0792 69.2358 70.8098 69.2358C70.9359 69.2432 71.0606 69.2639 71.1817 69.2977V69.2977ZM69.8911 72.4343C69.8911 72.88 70.4161 72.9295 70.823 72.9295C71.2298 72.9295 71.698 72.88 71.698 72.4425C71.698 72.1536 71.4792 72.0587 71.0373 72.0587C70.7448 72.0746 70.4513 72.0593 70.1624 72.0133C70.0818 72.0547 70.0144 72.1155 69.9667 72.1894C69.9191 72.2633 69.893 72.3478 69.8911 72.4343V72.4343ZM70.0267 70.2511C70.0267 70.6349 70.2761 70.8908 70.7792 70.8908C71.2823 70.8908 71.523 70.6431 71.523 70.2511C71.5302 70.1608 71.5161 70.0702 71.4816 69.9857C71.4471 69.9012 71.3932 69.825 71.3237 69.7626C71.2542 69.7002 71.1709 69.6532 71.0797 69.6249C70.9886 69.5966 70.8919 69.5877 70.7967 69.599C70.3155 69.599 70.0267 69.8301 70.0267 70.2511V70.2511ZM73.916 68.3114V69.8219C74.0186 69.6392 74.1744 69.4881 74.3652 69.3864C74.5559 69.2848 74.7735 69.2368 74.9923 69.2482C75.7054 69.2482 76.1822 69.6609 76.1822 70.5441V72.0587C76.1822 72.1211 76.156 72.1809 76.1092 72.2251C76.0624 72.2692 75.999 72.294 75.9329 72.294C75.8667 72.294 75.8033 72.2692 75.7565 72.2251C75.7098 72.1809 75.6835 72.1211 75.6835 72.0587V70.5317C75.6835 69.9622 75.3991 69.6279 74.861 69.6279C74.7274 69.6313 74.5959 69.6606 74.4748 69.7139C74.3536 69.7672 74.2454 69.8434 74.1568 69.9379C74.0682 70.0323 74.0011 70.1429 73.9597 70.2628C73.9182 70.3827 73.9034 70.5093 73.916 70.6349V72.0587C73.9208 72.0925 73.9178 72.1269 73.9073 72.1595C73.8969 72.1921 73.8791 72.2222 73.8553 72.2479C73.8315 72.2735 73.8021 72.294 73.7692 72.3081C73.7363 72.3222 73.7006 72.3295 73.6645 72.3295C73.6284 72.3295 73.5926 72.3222 73.5597 72.3081C73.5268 72.294 73.4975 72.2735 73.4737 72.2479C73.4498 72.2222 73.4321 72.1921 73.4216 72.1595C73.4112 72.1269 73.4082 72.0925 73.4129 72.0587V68.3114C73.4082 68.2776 73.4112 68.2432 73.4216 68.2106C73.4321 68.178 73.4498 68.1479 73.4737 68.1222C73.4975 68.0966 73.5268 68.0761 73.5597 68.062C73.5926 68.0479 73.6284 68.0406 73.6645 68.0406C73.7006 68.0406 73.7363 68.0479 73.7692 68.062C73.8021 68.0761 73.8315 68.0966 73.8553 68.1222C73.8791 68.1479 73.8969 68.178 73.9073 68.2106C73.9178 68.2432 73.9208 68.2776 73.916 68.3114V68.3114ZM78.1772 68.625V69.2977H78.9034C79.0391 69.2977 79.1135 69.3679 79.1135 69.4669C79.113 69.4917 79.1071 69.5162 79.096 69.5387C79.085 69.5612 79.069 69.5812 79.0492 69.5976C79.0294 69.6139 79.0062 69.6261 78.9811 69.6335C78.956 69.6409 78.9296 69.6432 78.9034 69.6403H78.1772V71.4025C78.1772 71.8152 78.3172 71.9844 78.6541 71.9844C78.7352 71.9834 78.8159 71.9737 78.8947 71.9555C78.92 71.9476 78.947 71.9455 78.9734 71.9495C78.9997 71.9534 79.0247 71.9633 79.0461 71.9783C79.0676 71.9932 79.0849 72.0129 79.0966 72.0355C79.1083 72.0581 79.1141 72.0831 79.1135 72.1082C79.1135 72.2279 78.9866 72.2733 78.9472 72.2857C78.8163 72.3279 78.6787 72.3489 78.5403 72.3476C77.941 72.3476 77.6654 72.034 77.6654 71.3901V69.6403H77.3766C77.241 69.6403 77.1666 69.5866 77.1666 69.4876C77.1666 69.3885 77.2279 69.3514 77.3285 69.3349L77.6654 69.2977L77.7179 68.6126C77.719 68.5855 77.7258 68.5589 77.7378 68.5343C77.7498 68.5096 77.7669 68.4875 77.7881 68.4691C77.8092 68.4507 77.8339 68.4364 77.8609 68.427C77.8879 68.4177 77.9166 68.4134 77.9453 68.4145C77.976 68.4107 78.0072 68.4134 78.0366 68.4225C78.066 68.4316 78.0928 68.4468 78.1151 68.467C78.1374 68.4873 78.1545 68.512 78.1653 68.5393C78.176 68.5667 78.1801 68.596 78.1772 68.625V68.625ZM80.7365 69.2977C80.7686 69.2959 80.8008 69.3006 80.8308 69.3113C80.8609 69.3221 80.8882 69.3388 80.9109 69.3602C80.9337 69.3817 80.9513 69.4074 80.9627 69.4358C80.9742 69.4641 80.9791 69.4944 80.9772 69.5247V72.0711C80.9819 72.1049 80.9789 72.1392 80.9685 72.1719C80.958 72.2045 80.9402 72.2346 80.9164 72.2602C80.8926 72.2859 80.8633 72.3064 80.8304 72.3205C80.7975 72.3346 80.7617 72.3418 80.7256 72.3418C80.6895 72.3418 80.6538 72.3346 80.6209 72.3205C80.5879 72.3064 80.5586 72.2859 80.5348 72.2602C80.511 72.2346 80.4932 72.2045 80.4828 72.1719C80.4723 72.1392 80.4693 72.1049 80.474 72.0711V69.7311L80.2859 69.6774C80.2385 69.6668 80.1967 69.6406 80.1678 69.6036C80.139 69.5665 80.125 69.521 80.1284 69.4752C80.1275 69.4498 80.1325 69.4246 80.143 69.4013C80.1536 69.378 80.1694 69.3571 80.1895 69.3402C80.2095 69.3232 80.2332 69.3107 80.2589 69.3033C80.2847 69.296 80.3118 69.2941 80.3384 69.2977H80.7365ZM80.999 68.4723V68.5879C80.9999 68.6239 80.9926 68.6596 80.9776 68.6927C80.9626 68.7258 80.9402 68.7555 80.912 68.7797C80.8838 68.804 80.8505 68.8222 80.8142 68.8333C80.7778 68.8443 80.7395 68.8479 80.7015 68.8438C80.664 68.8473 80.6261 68.8432 80.5903 68.8319C80.5545 68.8206 80.5217 68.8022 80.494 68.778C80.4663 68.7538 80.4443 68.7244 80.4296 68.6916C80.4148 68.6588 80.4076 68.6235 80.4084 68.5879V68.4723C80.4172 68.4043 80.4521 68.3416 80.5065 68.2962C80.5609 68.2507 80.6311 68.2256 80.7037 68.2256C80.7764 68.2256 80.8465 68.2507 80.9009 68.2962C80.9554 68.3416 80.9902 68.4043 80.999 68.4723V68.4723ZM85.2165 70.5358V72.0628C85.2165 72.1252 85.1902 72.1851 85.1434 72.2292C85.0967 72.2733 85.0332 72.2981 84.9671 72.2981C84.901 72.2981 84.8375 72.2733 84.7908 72.2292C84.744 72.1851 84.7177 72.1252 84.7177 72.0628V70.5317C84.7177 69.9622 84.4377 69.6279 83.8996 69.6279C83.7656 69.6307 83.6337 69.6596 83.512 69.7127C83.3903 69.7657 83.2816 69.8419 83.1925 69.9364C83.1034 70.0309 83.0359 70.1417 82.9942 70.2618C82.9526 70.382 82.9376 70.509 82.9503 70.6349V72.0711C82.9535 72.1031 82.9493 72.1354 82.938 72.1658C82.9268 72.1962 82.9087 72.2239 82.885 72.247C82.8613 72.2701 82.8325 72.2881 82.8008 72.2998C82.769 72.3115 82.7349 72.3165 82.7009 72.3146C82.6667 72.3164 82.6324 72.3114 82.6005 72.2997C82.5685 72.2881 82.5395 72.2702 82.5155 72.2471C82.4915 72.2241 82.4729 72.1964 82.4612 72.1661C82.4494 72.1357 82.4446 72.1033 82.4471 72.0711V69.4834C82.4471 69.339 82.5215 69.2647 82.6571 69.2647C82.7927 69.2647 82.8409 69.3184 82.8584 69.4587L82.9065 69.8714C82.9984 69.6662 83.1554 69.4929 83.356 69.3754C83.5565 69.2579 83.7908 69.2019 84.0265 69.2152C84.7396 69.2482 85.234 69.665 85.234 70.5441L85.2165 70.5358ZM88.082 69.2977H88.9351C89.0489 69.2977 89.1408 69.3514 89.1408 69.4587C89.1432 69.504 89.1267 69.5484 89.0948 69.5823C89.0629 69.6163 89.0181 69.6371 88.9701 69.6403L88.6289 69.6774C88.7239 69.7491 88.7993 69.8412 88.8488 69.9461C88.8982 70.0509 88.9204 70.1654 88.9133 70.28C88.9133 70.833 88.4758 71.2251 87.697 71.2251C87.4847 71.2324 87.2735 71.1928 87.0802 71.1095C87.0222 71.1366 86.9728 71.1775 86.9367 71.2282C86.9007 71.2789 86.8792 71.3375 86.8746 71.3984C86.8746 71.7327 87.5395 71.7162 87.9902 71.7162C88.7251 71.7162 89.0751 71.9679 89.0751 72.4302C89.0751 73.1565 88.2789 73.2886 87.7627 73.2886C87.1502 73.2886 86.3452 73.1854 86.3452 72.4632C86.3532 72.3352 86.3982 72.2118 86.4754 72.1063C86.5525 72.0008 86.6588 71.9173 86.7827 71.8647C86.6865 71.8308 86.6042 71.769 86.5476 71.6882C86.491 71.6073 86.463 71.5117 86.4677 71.4149C86.4773 71.3139 86.513 71.2167 86.5717 71.1318C86.6305 71.0469 86.7104 70.9769 86.8046 70.9279C86.6999 70.8412 86.617 70.7337 86.5617 70.6131C86.5065 70.4924 86.4804 70.3617 86.4852 70.2304C86.4852 69.5866 86.9883 69.2358 87.7145 69.2358C87.8391 69.2433 87.9624 69.264 88.082 69.2977V69.2977ZM86.7958 72.4343C86.7958 72.88 87.3208 72.9295 87.7233 72.9295C88.1258 72.9295 88.5983 72.88 88.5983 72.4425C88.5983 72.1536 88.3795 72.0587 87.9377 72.0587C87.6451 72.0743 87.3516 72.0591 87.0627 72.0133C86.9827 72.0549 86.9158 72.1158 86.869 72.1898C86.8221 72.2637 86.7968 72.3481 86.7958 72.4343V72.4343ZM86.9271 70.2511C86.9271 70.6349 87.1808 70.8908 87.6795 70.8908C88.1783 70.8908 88.4276 70.6431 88.4276 70.2511C88.4348 70.1612 88.4207 70.071 88.3865 69.9868C88.3523 69.9027 88.2988 69.8267 88.2298 69.7644C88.1608 69.7021 88.078 69.6549 87.9874 69.6263C87.8968 69.5977 87.8007 69.5884 87.7058 69.599C87.2158 69.599 86.9271 69.8301 86.9271 70.2511V70.2511Z" fill="#5D5D5D"/>
<path d="M9.48421 66.0121V71.8798C9.48421 72.171 9.60178 72.4504 9.81106 72.6563C10.0203 72.8622 10.3042 72.9779 10.6001 72.9779C10.8961 72.9779 11.1799 72.8622 11.3892 72.6563C11.5985 72.4504 11.7161 72.171 11.7161 71.8798V66.0121H9.48421ZM20.9516 66.0121V71.8798C20.9516 72.024 20.9805 72.1668 21.0365 72.3C21.0926 72.4333 21.1748 72.5543 21.2784 72.6563C21.3821 72.7583 21.5051 72.8391 21.6405 72.8943C21.7759 72.9495 21.921 72.9779 22.0675 72.9779C22.2141 72.9779 22.3592 72.9495 22.4946 72.8943C22.63 72.8391 22.753 72.7583 22.8566 72.6563C22.9602 72.5543 23.0424 72.4333 23.0985 72.3C23.1546 72.1668 23.1835 72.024 23.1835 71.8798V66.0121H20.9516ZM39.1645 66.0121V66.5448C39.1645 69.3475 37.1325 71.5438 34.5343 71.5438C31.453 71.5438 29.9623 69.9048 29.9623 66.6268V66.0121H27.7304V66.7251C27.7304 71.0521 29.8041 73.2811 33.8847 73.2811C34.968 73.337 36.0439 73.0767 36.9773 72.5329C37.9107 71.989 38.6601 71.1859 39.1312 70.2244V70.1506V71.9699C39.1312 72.2612 39.2488 72.5405 39.458 72.7464C39.6673 72.9524 39.9512 73.0681 40.2471 73.0681C40.5431 73.0681 40.8269 72.9524 41.0362 72.7464C41.2455 72.5405 41.3631 72.2612 41.3631 71.9699V66.0121H39.1645ZM27.7304 58.4563V64.3731H29.9623V58.4563C29.9623 58.165 29.8447 57.8857 29.6354 57.6798C29.4262 57.4738 29.1423 57.3582 28.8464 57.3582C28.5504 57.3582 28.2666 57.4738 28.0573 57.6798C27.848 57.8857 27.7304 58.165 27.7304 58.4563V58.4563ZM39.1645 58.4563V64.3731H41.3964V58.4563C41.3964 58.165 41.2788 57.8857 41.0695 57.6798C40.8602 57.4738 40.5764 57.3582 40.2804 57.3582C39.9845 57.3582 39.7006 57.4738 39.4914 57.6798C39.2821 57.8857 39.1645 58.165 39.1645 58.4563ZM48.2252 64.2994C48.4833 60.9558 50.7235 58.8005 53.9047 58.8005C56.3448 58.8005 58.9014 60.251 58.9014 64.3076V64.3731H48.2168L48.2252 64.2994ZM45.9433 64.3731H44.5193C44.2984 64.3731 44.0866 64.4595 43.9304 64.6131C43.7742 64.7668 43.6865 64.9753 43.6865 65.1926C43.6865 65.41 43.7742 65.6184 43.9304 65.7721C44.0866 65.9258 44.2984 66.0121 44.5193 66.0121H45.9433C46.2681 70.4293 49.4827 73.2484 54.3378 73.2484C56.0558 73.3078 57.7649 72.9798 59.3345 72.2895C59.5411 72.2239 59.7173 72.0882 59.8317 71.9066C59.9461 71.725 59.9913 71.5093 59.959 71.2979C59.949 71.1941 59.9153 71.0937 59.8605 71.0044C59.8057 70.915 59.7313 70.8389 59.6426 70.7817C59.5003 70.717 59.3454 70.6835 59.1887 70.6835C59.032 70.6835 58.8771 70.717 58.7349 70.7817C58.46 70.8636 58.2185 70.9537 57.977 71.0357C56.8853 71.4558 55.7175 71.6511 54.546 71.6094C50.7901 71.6094 48.3084 69.4541 48.2168 66.1023V66.0121H59.8758C60.0149 66.0289 60.1561 66.0157 60.2895 65.9734C60.423 65.931 60.5454 65.8606 60.6484 65.7671C60.7514 65.6735 60.8325 65.559 60.886 65.4315C60.9396 65.304 60.9643 65.1666 60.9584 65.0287V64.9058C60.9584 57.7187 55.4953 57.1533 53.8214 57.1533C51.8079 57.0976 49.853 57.8237 48.379 59.1746C46.9049 60.5255 46.03 62.3928 45.9433 64.3731V64.3731ZM9.48421 52.4001V64.3731H11.7161C11.7161 61.7343 13.265 58.8906 16.6628 58.8906C19.4276 58.8906 20.9516 60.6444 20.9516 63.8077V64.3731H23.1835V63.8568C23.1835 59.5298 21.0932 57.1451 17.3124 57.1451C16.2271 57.0765 15.1451 57.3206 14.1986 57.8474C13.252 58.3743 12.482 59.1611 11.9826 60.1117L11.6911 60.7017V52.4001C11.6911 52.1089 11.5735 51.8296 11.3642 51.6236C11.155 51.4177 10.8711 51.302 10.5752 51.302C10.2792 51.302 9.99535 51.4177 9.78608 51.6236C9.5768 51.8296 9.45923 52.1089 9.45923 52.4001" fill="url(#paint0_linear_1101_2246)"/>
<path d="M37.9835 14.9988V30.0738H33.4683V24.1321H28.7698V30.0738H24.2545V14.9988H28.7698V20.9915H33.4683V14.9988H37.9835ZM53.6952 27.0435V14.9988H49.18V30.0738H57.3524L58.0271 27.0435H53.6952ZM45.8393 14.9988H41.3241V30.0738H45.8393V14.9988ZM64.1669 14.9988H59.635V30.0738H64.1502L64.1669 14.9988ZM86.4431 18.844C86.4431 17.9952 87.2762 17.6471 88.5425 17.6471C89.9175 17.6486 91.2809 17.9046 92.5662 18.4026L92.1746 15.1007C90.8078 14.7886 89.4099 14.6404 88.0093 14.6593C84.3604 14.6593 81.8862 16.1278 81.8862 19.209C81.8862 24.5056 88.934 23.453 88.934 25.8891C88.934 26.8398 88.2592 27.3406 86.5847 27.3406C84.8214 27.2841 83.0862 26.8745 81.478 26.1353L81.9695 29.6069C83.4893 30.1113 85.0781 30.3663 86.6764 30.3624C90.4419 30.3624 93.5409 29.0976 93.5409 25.3119C93.5409 20.27 86.4265 21.2122 86.4265 18.8185L86.4431 18.844ZM80.545 20.3973C80.545 24.2424 77.8875 26.4493 73.6805 26.4493H72.0727V30.0483H67.5574V14.9988C69.3856 14.7867 71.224 14.679 73.064 14.6763C77.7042 14.6763 80.5616 16.1957 80.5616 20.4228L80.545 20.3973ZM76.1131 20.4822C76.1131 18.5893 75.0551 17.5198 72.8308 17.5198C72.5975 17.5198 72.3559 17.5198 72.0893 17.5198V23.7501H72.8308C75.18 23.7501 76.1131 22.426 76.1131 20.4652V20.4822ZM22.4551 20.4228C22.4551 24.2679 19.7976 26.4748 15.5906 26.4748H13.9828V30.0738H9.45923V14.9988C11.2874 14.787 13.1258 14.6793 14.9658 14.6763C19.606 14.6763 22.4634 16.1957 22.4634 20.4228H22.4551ZM18.0148 20.4822C18.0148 18.5893 16.9652 17.5198 14.7326 17.5198C14.4993 17.5198 14.2577 17.5198 13.9911 17.5198V23.7501H14.7326C17.0818 23.7501 18.0148 22.426 18.0148 20.4652" fill="#0F70B8"/>
<defs>
<linearGradient id="paint0_linear_1101_2246" x1="9.45923" y1="62.2953" x2="60.9592" y2="62.2953" gradientUnits="userSpaceOnUse">
<stop stop-color="#ED1C24"/>
<stop offset="0.06" stop-color="#F03F23"/>
<stop offset="0.13" stop-color="#F26321"/>
<stop offset="0.17" stop-color="#F37021"/>
<stop offset="0.24" stop-color="#F78A1E"/>
<stop offset="0.32" stop-color="#FBA51B"/>
<stop offset="0.37" stop-color="#FCAF1A"/>
<stop offset="0.41" stop-color="#EEB21F"/>
<stop offset="0.5" stop-color="#C7BA2C"/>
<stop offset="0.61" stop-color="#8DC63F"/>
<stop offset="0.64" stop-color="#7DC24D"/>
<stop offset="0.76" stop-color="#3FB184"/>
<stop offset="0.82" stop-color="#26AB9A"/>
<stop offset="0.88" stop-color="#1B9A9F"/>
<stop offset="1" stop-color="#006EAB"/>
</linearGradient>
</defs>
</svg>
